<svg width="26" height="27" viewBox="0 0 26 27" fill="none" xmlns="http://www.w3.org/2000/svg">
<path d="M21.6665 4.58557H4.33317C3.75853 4.58557 3.20743 4.81384 2.80111 5.22017C2.39478 5.6265 2.1665 6.1776 2.1665 6.75224V19.7522C2.1665 20.3269 2.39478 20.878 2.80111 21.2843C3.20743 21.6906 3.75853 21.9189 4.33317 21.9189H21.6665C22.2411 21.9189 22.7922 21.6906 23.1986 21.2843C23.6049 20.878 23.8332 20.3269 23.8332 19.7522V6.75224C23.8332 6.1776 23.6049 5.6265 23.1986 5.22017C22.7922 4.81384 22.2411 4.58557 21.6665 4.58557ZM4.33317 19.7522V6.75224H21.6665V19.7522H4.33317Z" fill="#141414"/>
<path d="M6.5 8.91882H8.66667V17.5855H6.5V8.91882ZM9.75 8.91882H10.8333V17.5855H9.75V8.91882ZM18.4167 8.91882H19.5V17.5855H18.4167V8.91882ZM14.0833 8.91882H17.3333V17.5855H14.0833V8.91882ZM11.9167 8.91882H13V17.5855H11.9167V8.91882Z" fill="#141414"/>
</svg>
